<mxfile host="app.diagrams.net" modified="2023-04-26T16:29:33.957Z" agent="Mozilla/5.0 (Macintosh; Intel Mac OS X 10_15_7) AppleWebKit/537.36 (KHTML, like Gecko) Chrome/111.0.0.0 Safari/537.36" etag="d840Z8TT085xlJvTPuyr" version="21.1.5" type="device">
  <diagram name="Page-1" id="SrpjigHFwuiviZ9COIa3">
    <mxGraphModel dx="1594" dy="757" grid="1" gridSize="10" guides="1" tooltips="1" connect="1" arrows="1" fold="1" page="1" pageScale="1" pageWidth="1100" pageHeight="850" math="0" shadow="0">
      <root>
        <mxCell id="0" />
        <mxCell id="1" parent="0" />
        <mxCell id="4HHlAI030O3sYG9b1Mv--37" value="" style="rounded=0;whiteSpace=wrap;html=1;strokeColor=none;fillColor=#F0F0F0;" vertex="1" parent="1">
          <mxGeometry x="170" y="260" width="340" height="300" as="geometry" />
        </mxCell>
        <mxCell id="4HHlAI030O3sYG9b1Mv--35" value="" style="rounded=0;whiteSpace=wrap;html=1;strokeColor=none;fillColor=#F0F0F0;" vertex="1" parent="1">
          <mxGeometry x="530" y="260" width="340" height="150" as="geometry" />
        </mxCell>
        <mxCell id="4HHlAI030O3sYG9b1Mv--33" value="" style="rounded=0;whiteSpace=wrap;html=1;strokeColor=none;fillColor=#F0F0F0;" vertex="1" parent="1">
          <mxGeometry x="360" y="30" width="680" height="220" as="geometry" />
        </mxCell>
        <mxCell id="4HHlAI030O3sYG9b1Mv--27" value="" style="rounded=0;whiteSpace=wrap;html=1;strokeColor=none;fillColor=#F0F0F0;" vertex="1" parent="1">
          <mxGeometry y="30" width="340" height="220" as="geometry" />
        </mxCell>
        <mxCell id="4HHlAI030O3sYG9b1Mv--16" style="edgeStyle=orthogonalEdgeStyle;rounded=0;orthogonalLoop=1;jettySize=auto;html=1;" edge="1" parent="1" source="4HHlAI030O3sYG9b1Mv--4" target="4HHlAI030O3sYG9b1Mv--8">
          <mxGeometry relative="1" as="geometry" />
        </mxCell>
        <mxCell id="4HHlAI030O3sYG9b1Mv--20" style="edgeStyle=orthogonalEdgeStyle;rounded=0;orthogonalLoop=1;jettySize=auto;html=1;entryX=0.5;entryY=0;entryDx=0;entryDy=0;entryPerimeter=0;" edge="1" parent="1" source="4HHlAI030O3sYG9b1Mv--4" target="4HHlAI030O3sYG9b1Mv--7">
          <mxGeometry relative="1" as="geometry">
            <Array as="points">
              <mxPoint x="249" y="70" />
              <mxPoint x="969" y="70" />
            </Array>
          </mxGeometry>
        </mxCell>
        <mxCell id="4HHlAI030O3sYG9b1Mv--4" value="AWS S3&lt;br&gt;Raw Data" style="sketch=0;points=[[0,0,0],[0.25,0,0],[0.5,0,0],[0.75,0,0],[1,0,0],[0,1,0],[0.25,1,0],[0.5,1,0],[0.75,1,0],[1,1,0],[0,0.25,0],[0,0.5,0],[0,0.75,0],[1,0.25,0],[1,0.5,0],[1,0.75,0]];outlineConnect=0;fontColor=#232F3E;gradientColor=#60A337;gradientDirection=north;fillColor=#277116;strokeColor=#ffffff;dashed=0;verticalLabelPosition=bottom;verticalAlign=top;align=center;html=1;fontSize=12;fontStyle=0;aspect=fixed;shape=mxgraph.aws4.resourceIcon;resIcon=mxgraph.aws4.s3;" vertex="1" parent="1">
          <mxGeometry x="210" y="112" width="78" height="78" as="geometry" />
        </mxCell>
        <mxCell id="4HHlAI030O3sYG9b1Mv--19" style="edgeStyle=orthogonalEdgeStyle;rounded=0;orthogonalLoop=1;jettySize=auto;html=1;entryX=0;entryY=0.5;entryDx=0;entryDy=0;entryPerimeter=0;" edge="1" parent="1" source="4HHlAI030O3sYG9b1Mv--5" target="4HHlAI030O3sYG9b1Mv--7">
          <mxGeometry relative="1" as="geometry" />
        </mxCell>
        <mxCell id="4HHlAI030O3sYG9b1Mv--21" style="edgeStyle=orthogonalEdgeStyle;rounded=0;orthogonalLoop=1;jettySize=auto;html=1;entryX=0.5;entryY=0;entryDx=0;entryDy=0;entryPerimeter=0;" edge="1" parent="1" source="4HHlAI030O3sYG9b1Mv--5" target="4HHlAI030O3sYG9b1Mv--9">
          <mxGeometry relative="1" as="geometry" />
        </mxCell>
        <mxCell id="4HHlAI030O3sYG9b1Mv--5" value="AWS S3&lt;br&gt;Clean Data (for ML)" style="sketch=0;points=[[0,0,0],[0.25,0,0],[0.5,0,0],[0.75,0,0],[1,0,0],[0,1,0],[0.25,1,0],[0.5,1,0],[0.75,1,0],[1,1,0],[0,0.25,0],[0,0.5,0],[0,0.75,0],[1,0.25,0],[1,0.5,0],[1,0.75,0]];outlineConnect=0;fontColor=#232F3E;gradientColor=#60A337;gradientDirection=north;fillColor=#277116;strokeColor=#ffffff;dashed=0;verticalLabelPosition=bottom;verticalAlign=top;align=center;html=1;fontSize=12;fontStyle=0;aspect=fixed;shape=mxgraph.aws4.resourceIcon;resIcon=mxgraph.aws4.s3;" vertex="1" parent="1">
          <mxGeometry x="750" y="112" width="78" height="78" as="geometry" />
        </mxCell>
        <mxCell id="4HHlAI030O3sYG9b1Mv--18" style="edgeStyle=orthogonalEdgeStyle;rounded=0;orthogonalLoop=1;jettySize=auto;html=1;entryX=0;entryY=0.5;entryDx=0;entryDy=0;entryPerimeter=0;" edge="1" parent="1" source="4HHlAI030O3sYG9b1Mv--6" target="4HHlAI030O3sYG9b1Mv--5">
          <mxGeometry relative="1" as="geometry" />
        </mxCell>
        <mxCell id="4HHlAI030O3sYG9b1Mv--6" value="AWS Lambda&lt;br&gt;Data Cleaning Logic" style="sketch=0;points=[[0,0,0],[0.25,0,0],[0.5,0,0],[0.75,0,0],[1,0,0],[0,1,0],[0.25,1,0],[0.5,1,0],[0.75,1,0],[1,1,0],[0,0.25,0],[0,0.5,0],[0,0.75,0],[1,0.25,0],[1,0.5,0],[1,0.75,0]];outlineConnect=0;fontColor=#232F3E;gradientColor=#F78E04;gradientDirection=north;fillColor=#D05C17;strokeColor=#ffffff;dashed=0;verticalLabelPosition=bottom;verticalAlign=top;align=center;html=1;fontSize=12;fontStyle=0;aspect=fixed;shape=mxgraph.aws4.resourceIcon;resIcon=mxgraph.aws4.lambda;" vertex="1" parent="1">
          <mxGeometry x="570" y="112" width="78" height="78" as="geometry" />
        </mxCell>
        <mxCell id="4HHlAI030O3sYG9b1Mv--7" value="AWS EC2&lt;br&gt;Perform EDA" style="sketch=0;points=[[0,0,0],[0.25,0,0],[0.5,0,0],[0.75,0,0],[1,0,0],[0,1,0],[0.25,1,0],[0.5,1,0],[0.75,1,0],[1,1,0],[0,0.25,0],[0,0.5,0],[0,0.75,0],[1,0.25,0],[1,0.5,0],[1,0.75,0]];outlineConnect=0;fontColor=#232F3E;gradientColor=#F78E04;gradientDirection=north;fillColor=#D05C17;strokeColor=#ffffff;dashed=0;verticalLabelPosition=bottom;verticalAlign=top;align=center;html=1;fontSize=12;fontStyle=0;aspect=fixed;shape=mxgraph.aws4.resourceIcon;resIcon=mxgraph.aws4.ec2;" vertex="1" parent="1">
          <mxGeometry x="930" y="112" width="78" height="78" as="geometry" />
        </mxCell>
        <mxCell id="4HHlAI030O3sYG9b1Mv--17" style="edgeStyle=orthogonalEdgeStyle;rounded=0;orthogonalLoop=1;jettySize=auto;html=1;" edge="1" parent="1" source="4HHlAI030O3sYG9b1Mv--8" target="4HHlAI030O3sYG9b1Mv--6">
          <mxGeometry relative="1" as="geometry" />
        </mxCell>
        <mxCell id="4HHlAI030O3sYG9b1Mv--8" value="AWS SQS&lt;br&gt;Processing Queue" style="sketch=0;points=[[0,0,0],[0.25,0,0],[0.5,0,0],[0.75,0,0],[1,0,0],[0,1,0],[0.25,1,0],[0.5,1,0],[0.75,1,0],[1,1,0],[0,0.25,0],[0,0.5,0],[0,0.75,0],[1,0.25,0],[1,0.5,0],[1,0.75,0]];outlineConnect=0;fontColor=#232F3E;gradientColor=#FF4F8B;gradientDirection=north;fillColor=#BC1356;strokeColor=#ffffff;dashed=0;verticalLabelPosition=bottom;verticalAlign=top;align=center;html=1;fontSize=12;fontStyle=0;aspect=fixed;shape=mxgraph.aws4.resourceIcon;resIcon=mxgraph.aws4.sqs;" vertex="1" parent="1">
          <mxGeometry x="390" y="112" width="78" height="78" as="geometry" />
        </mxCell>
        <mxCell id="4HHlAI030O3sYG9b1Mv--22" style="edgeStyle=orthogonalEdgeStyle;rounded=0;orthogonalLoop=1;jettySize=auto;html=1;entryX=1;entryY=0.5;entryDx=0;entryDy=0;entryPerimeter=0;" edge="1" parent="1" source="4HHlAI030O3sYG9b1Mv--9" target="4HHlAI030O3sYG9b1Mv--10">
          <mxGeometry relative="1" as="geometry" />
        </mxCell>
        <mxCell id="4HHlAI030O3sYG9b1Mv--9" value="AWS Fargate&lt;br&gt;Model Training" style="sketch=0;points=[[0,0,0],[0.25,0,0],[0.5,0,0],[0.75,0,0],[1,0,0],[0,1,0],[0.25,1,0],[0.5,1,0],[0.75,1,0],[1,1,0],[0,0.25,0],[0,0.5,0],[0,0.75,0],[1,0.25,0],[1,0.5,0],[1,0.75,0]];outlineConnect=0;fontColor=#232F3E;gradientColor=#F78E04;gradientDirection=north;fillColor=#D05C17;strokeColor=#ffffff;dashed=0;verticalLabelPosition=bottom;verticalAlign=top;align=center;html=1;fontSize=12;fontStyle=0;aspect=fixed;shape=mxgraph.aws4.resourceIcon;resIcon=mxgraph.aws4.fargate;" vertex="1" parent="1">
          <mxGeometry x="750" y="280" width="78" height="78" as="geometry" />
        </mxCell>
        <mxCell id="4HHlAI030O3sYG9b1Mv--23" style="edgeStyle=orthogonalEdgeStyle;rounded=0;orthogonalLoop=1;jettySize=auto;html=1;entryX=1;entryY=0.5;entryDx=0;entryDy=0;entryPerimeter=0;" edge="1" parent="1" source="4HHlAI030O3sYG9b1Mv--10" target="4HHlAI030O3sYG9b1Mv--14">
          <mxGeometry relative="1" as="geometry" />
        </mxCell>
        <mxCell id="4HHlAI030O3sYG9b1Mv--10" value="AWS S3&lt;br&gt;Store Model Artifacts" style="sketch=0;points=[[0,0,0],[0.25,0,0],[0.5,0,0],[0.75,0,0],[1,0,0],[0,1,0],[0.25,1,0],[0.5,1,0],[0.75,1,0],[1,1,0],[0,0.25,0],[0,0.5,0],[0,0.75,0],[1,0.25,0],[1,0.5,0],[1,0.75,0]];outlineConnect=0;fontColor=#232F3E;gradientColor=#60A337;gradientDirection=north;fillColor=#277116;strokeColor=#ffffff;dashed=0;verticalLabelPosition=bottom;verticalAlign=top;align=center;html=1;fontSize=12;fontStyle=0;aspect=fixed;shape=mxgraph.aws4.resourceIcon;resIcon=mxgraph.aws4.s3;" vertex="1" parent="1">
          <mxGeometry x="570" y="280" width="78" height="78" as="geometry" />
        </mxCell>
        <mxCell id="4HHlAI030O3sYG9b1Mv--11" value="User Computer&lt;br&gt;Access Webapp (Streamlit)" style="verticalLabelPosition=bottom;html=1;verticalAlign=top;align=center;strokeColor=#001C24;fillColor=#001C24;shape=mxgraph.azure.laptop;pointerEvents=1;" vertex="1" parent="1">
          <mxGeometry x="214" y="439" width="70" height="60" as="geometry" />
        </mxCell>
        <mxCell id="4HHlAI030O3sYG9b1Mv--26" style="edgeStyle=orthogonalEdgeStyle;rounded=0;orthogonalLoop=1;jettySize=auto;html=1;entryX=0.92;entryY=0.5;entryDx=0;entryDy=0;entryPerimeter=0;" edge="1" parent="1" source="4HHlAI030O3sYG9b1Mv--12" target="4HHlAI030O3sYG9b1Mv--11">
          <mxGeometry relative="1" as="geometry" />
        </mxCell>
        <mxCell id="4HHlAI030O3sYG9b1Mv--12" value="AWS Fargate&lt;br&gt;Maintain Streamlit Webapp" style="sketch=0;points=[[0,0,0],[0.25,0,0],[0.5,0,0],[0.75,0,0],[1,0,0],[0,1,0],[0.25,1,0],[0.5,1,0],[0.75,1,0],[1,1,0],[0,0.25,0],[0,0.5,0],[0,0.75,0],[1,0.25,0],[1,0.5,0],[1,0.75,0]];outlineConnect=0;fontColor=#232F3E;gradientColor=#F78E04;gradientDirection=north;fillColor=#D05C17;strokeColor=#ffffff;dashed=0;verticalLabelPosition=bottom;verticalAlign=top;align=center;html=1;fontSize=12;fontStyle=0;aspect=fixed;shape=mxgraph.aws4.resourceIcon;resIcon=mxgraph.aws4.fargate;" vertex="1" parent="1">
          <mxGeometry x="390" y="430" width="78" height="78" as="geometry" />
        </mxCell>
        <mxCell id="4HHlAI030O3sYG9b1Mv--25" style="edgeStyle=orthogonalEdgeStyle;rounded=0;orthogonalLoop=1;jettySize=auto;html=1;entryX=0.5;entryY=0;entryDx=0;entryDy=0;entryPerimeter=0;" edge="1" parent="1" source="4HHlAI030O3sYG9b1Mv--13" target="4HHlAI030O3sYG9b1Mv--11">
          <mxGeometry relative="1" as="geometry" />
        </mxCell>
        <mxCell id="4HHlAI030O3sYG9b1Mv--13" value="AWS API Gateway&lt;br&gt;Send Requests" style="sketch=0;points=[[0,0,0],[0.25,0,0],[0.5,0,0],[0.75,0,0],[1,0,0],[0,1,0],[0.25,1,0],[0.5,1,0],[0.75,1,0],[1,1,0],[0,0.25,0],[0,0.5,0],[0,0.75,0],[1,0.25,0],[1,0.5,0],[1,0.75,0]];outlineConnect=0;fontColor=#232F3E;gradientColor=#FF4F8B;gradientDirection=north;fillColor=#BC1356;strokeColor=#ffffff;dashed=0;verticalLabelPosition=bottom;verticalAlign=top;align=center;html=1;fontSize=12;fontStyle=0;aspect=fixed;shape=mxgraph.aws4.resourceIcon;resIcon=mxgraph.aws4.api_gateway;" vertex="1" parent="1">
          <mxGeometry x="210" y="280" width="78" height="78" as="geometry" />
        </mxCell>
        <mxCell id="4HHlAI030O3sYG9b1Mv--24" style="edgeStyle=orthogonalEdgeStyle;rounded=0;orthogonalLoop=1;jettySize=auto;html=1;" edge="1" parent="1" source="4HHlAI030O3sYG9b1Mv--14">
          <mxGeometry relative="1" as="geometry">
            <mxPoint x="289.9999999999998" y="318.9999999999999" as="targetPoint" />
          </mxGeometry>
        </mxCell>
        <mxCell id="4HHlAI030O3sYG9b1Mv--14" value="AWS Lambda&lt;br&gt;Make Prediction" style="sketch=0;points=[[0,0,0],[0.25,0,0],[0.5,0,0],[0.75,0,0],[1,0,0],[0,1,0],[0.25,1,0],[0.5,1,0],[0.75,1,0],[1,1,0],[0,0.25,0],[0,0.5,0],[0,0.75,0],[1,0.25,0],[1,0.5,0],[1,0.75,0]];outlineConnect=0;fontColor=#232F3E;gradientColor=#F78E04;gradientDirection=north;fillColor=#D05C17;strokeColor=#ffffff;dashed=0;verticalLabelPosition=bottom;verticalAlign=top;align=center;html=1;fontSize=12;fontStyle=0;aspect=fixed;shape=mxgraph.aws4.resourceIcon;resIcon=mxgraph.aws4.lambda;" vertex="1" parent="1">
          <mxGeometry x="390" y="280" width="78" height="78" as="geometry" />
        </mxCell>
        <mxCell id="4HHlAI030O3sYG9b1Mv--31" style="edgeStyle=orthogonalEdgeStyle;rounded=0;orthogonalLoop=1;jettySize=auto;html=1;entryX=0;entryY=0.5;entryDx=0;entryDy=0;entryPerimeter=0;" edge="1" parent="1" source="4HHlAI030O3sYG9b1Mv--30" target="4HHlAI030O3sYG9b1Mv--4">
          <mxGeometry relative="1" as="geometry" />
        </mxCell>
        <mxCell id="4HHlAI030O3sYG9b1Mv--30" value="Data&lt;br&gt;CSV Format" style="html=1;verticalLabelPosition=bottom;align=center;labelBackgroundColor=#ffffff;verticalAlign=top;strokeWidth=2;strokeColor=#001C24;shadow=0;dashed=0;shape=mxgraph.ios7.icons.data;" vertex="1" parent="1">
          <mxGeometry x="40" y="111" width="62" height="80" as="geometry" />
        </mxCell>
        <mxCell id="4HHlAI030O3sYG9b1Mv--32" value="&lt;b&gt;Data Ingestion&lt;/b&gt;" style="text;html=1;strokeColor=none;fillColor=none;align=center;verticalAlign=middle;whiteSpace=wrap;rounded=0;" vertex="1" parent="1">
          <mxGeometry x="104" y="30" width="110" height="30" as="geometry" />
        </mxCell>
        <mxCell id="4HHlAI030O3sYG9b1Mv--34" value="&lt;b&gt;Data Processing&lt;/b&gt;" style="text;html=1;strokeColor=none;fillColor=none;align=center;verticalAlign=middle;whiteSpace=wrap;rounded=0;" vertex="1" parent="1">
          <mxGeometry x="645" y="30" width="110" height="30" as="geometry" />
        </mxCell>
        <mxCell id="4HHlAI030O3sYG9b1Mv--36" value="&lt;b&gt;Training Models&lt;/b&gt;" style="text;html=1;strokeColor=none;fillColor=none;align=center;verticalAlign=middle;whiteSpace=wrap;rounded=0;" vertex="1" parent="1">
          <mxGeometry x="645" y="260" width="110" height="30" as="geometry" />
        </mxCell>
        <mxCell id="4HHlAI030O3sYG9b1Mv--38" value="&lt;b&gt;Deployment&lt;/b&gt;" style="text;html=1;strokeColor=none;fillColor=none;align=center;verticalAlign=middle;whiteSpace=wrap;rounded=0;" vertex="1" parent="1">
          <mxGeometry x="284" y="270" width="110" height="30" as="geometry" />
        </mxCell>
      </root>
    </mxGraphModel>
  </diagram>
</mxfile>
